<mxfile host="app.diagrams.net" modified="2021-07-15T09:18:01.585Z" agent="5.0 (Windows)" etag="hbyF8g0UtLnrzGbBDq5y" version="14.8.6" type="github">
  <diagram id="C5RBs43oDa-KdzZeNtuy" name="Page-1">
    <mxGraphModel dx="1330" dy="1126" grid="1" gridSize="10" guides="1" tooltips="1" connect="1" arrows="1" fold="1" page="1" pageScale="1" pageWidth="827" pageHeight="1169" math="0" shadow="0">
      <root>
        <mxCell id="WIyWlLk6GJQsqaUBKTNV-0" />
        <mxCell id="WIyWlLk6GJQsqaUBKTNV-1" parent="WIyWlLk6GJQsqaUBKTNV-0" />
        <mxCell id="iEEMwv1ORN18iSPPfqGk-7" style="edgeStyle=orthogonalEdgeStyle;rounded=0;orthogonalLoop=1;jettySize=auto;html=1;entryX=0;entryY=0.5;entryDx=0;entryDy=0;" edge="1" parent="WIyWlLk6GJQsqaUBKTNV-1" source="WIyWlLk6GJQsqaUBKTNV-3" target="iEEMwv1ORN18iSPPfqGk-6">
          <mxGeometry relative="1" as="geometry" />
        </mxCell>
        <mxCell id="WIyWlLk6GJQsqaUBKTNV-3" value="START" style="rounded=1;whiteSpace=wrap;html=1;fontSize=12;glass=0;strokeWidth=1;shadow=0;" parent="WIyWlLk6GJQsqaUBKTNV-1" vertex="1">
          <mxGeometry x="537" y="80" width="120" height="40" as="geometry" />
        </mxCell>
        <mxCell id="iEEMwv1ORN18iSPPfqGk-17" style="edgeStyle=orthogonalEdgeStyle;rounded=0;orthogonalLoop=1;jettySize=auto;html=1;entryX=0.5;entryY=0;entryDx=0;entryDy=0;" edge="1" parent="WIyWlLk6GJQsqaUBKTNV-1" source="WIyWlLk6GJQsqaUBKTNV-6" target="iEEMwv1ORN18iSPPfqGk-3">
          <mxGeometry relative="1" as="geometry" />
        </mxCell>
        <mxCell id="WIyWlLk6GJQsqaUBKTNV-6" value="while(1)" style="rhombus;whiteSpace=wrap;html=1;shadow=0;fontFamily=Helvetica;fontSize=12;align=center;strokeWidth=1;spacing=6;spacingTop=-4;" parent="WIyWlLk6GJQsqaUBKTNV-1" vertex="1">
          <mxGeometry x="547" y="250" width="100" height="80" as="geometry" />
        </mxCell>
        <mxCell id="iEEMwv1ORN18iSPPfqGk-4" style="edgeStyle=orthogonalEdgeStyle;rounded=0;orthogonalLoop=1;jettySize=auto;html=1;exitX=0.5;exitY=0;exitDx=0;exitDy=0;" edge="1" parent="WIyWlLk6GJQsqaUBKTNV-1">
          <mxGeometry relative="1" as="geometry">
            <mxPoint x="597" y="430" as="targetPoint" />
            <mxPoint x="597" y="430" as="sourcePoint" />
          </mxGeometry>
        </mxCell>
        <mxCell id="iEEMwv1ORN18iSPPfqGk-2" style="edgeStyle=orthogonalEdgeStyle;rounded=0;orthogonalLoop=1;jettySize=auto;html=1;entryX=0.5;entryY=0;entryDx=0;entryDy=0;" edge="1" parent="WIyWlLk6GJQsqaUBKTNV-1" source="iEEMwv1ORN18iSPPfqGk-0" target="WIyWlLk6GJQsqaUBKTNV-6">
          <mxGeometry relative="1" as="geometry" />
        </mxCell>
        <mxCell id="iEEMwv1ORN18iSPPfqGk-0" value="user[10]&lt;br&gt;data input" style="shape=parallelogram;perimeter=parallelogramPerimeter;whiteSpace=wrap;html=1;fixedSize=1;" vertex="1" parent="WIyWlLk6GJQsqaUBKTNV-1">
          <mxGeometry x="537" y="150" width="120" height="60" as="geometry" />
        </mxCell>
        <mxCell id="iEEMwv1ORN18iSPPfqGk-18" style="edgeStyle=orthogonalEdgeStyle;rounded=0;orthogonalLoop=1;jettySize=auto;html=1;entryX=0.5;entryY=0;entryDx=0;entryDy=0;" edge="1" parent="WIyWlLk6GJQsqaUBKTNV-1" source="iEEMwv1ORN18iSPPfqGk-3" target="iEEMwv1ORN18iSPPfqGk-12">
          <mxGeometry relative="1" as="geometry" />
        </mxCell>
        <mxCell id="iEEMwv1ORN18iSPPfqGk-3" value="&lt;div&gt;Output Menu&lt;/div&gt;" style="shape=parallelogram;perimeter=parallelogramPerimeter;whiteSpace=wrap;html=1;fixedSize=1;" vertex="1" parent="WIyWlLk6GJQsqaUBKTNV-1">
          <mxGeometry x="537" y="370" width="120" height="50" as="geometry" />
        </mxCell>
        <mxCell id="iEEMwv1ORN18iSPPfqGk-11" style="edgeStyle=orthogonalEdgeStyle;rounded=0;orthogonalLoop=1;jettySize=auto;html=1;entryX=1;entryY=0.5;entryDx=0;entryDy=0;" edge="1" parent="WIyWlLk6GJQsqaUBKTNV-1" source="iEEMwv1ORN18iSPPfqGk-6" target="iEEMwv1ORN18iSPPfqGk-0">
          <mxGeometry relative="1" as="geometry">
            <Array as="points">
              <mxPoint x="727" y="180" />
            </Array>
          </mxGeometry>
        </mxCell>
        <mxCell id="iEEMwv1ORN18iSPPfqGk-6" value="Intro()" style="rounded=0;whiteSpace=wrap;html=1;" vertex="1" parent="WIyWlLk6GJQsqaUBKTNV-1">
          <mxGeometry x="697" y="85" width="70" height="30" as="geometry" />
        </mxCell>
        <mxCell id="iEEMwv1ORN18iSPPfqGk-16" style="edgeStyle=orthogonalEdgeStyle;rounded=0;orthogonalLoop=1;jettySize=auto;html=1;entryX=0.5;entryY=0;entryDx=0;entryDy=0;" edge="1" parent="WIyWlLk6GJQsqaUBKTNV-1" source="iEEMwv1ORN18iSPPfqGk-12" target="iEEMwv1ORN18iSPPfqGk-15">
          <mxGeometry relative="1" as="geometry" />
        </mxCell>
        <mxCell id="iEEMwv1ORN18iSPPfqGk-12" value="&lt;div&gt;Input Choice&lt;/div&gt;" style="shape=parallelogram;perimeter=parallelogramPerimeter;whiteSpace=wrap;html=1;fixedSize=1;" vertex="1" parent="WIyWlLk6GJQsqaUBKTNV-1">
          <mxGeometry x="537" y="480" width="120" height="50" as="geometry" />
        </mxCell>
        <mxCell id="iEEMwv1ORN18iSPPfqGk-27" style="edgeStyle=orthogonalEdgeStyle;rounded=0;orthogonalLoop=1;jettySize=auto;html=1;entryX=0.5;entryY=0;entryDx=0;entryDy=0;" edge="1" parent="WIyWlLk6GJQsqaUBKTNV-1" source="iEEMwv1ORN18iSPPfqGk-15" target="iEEMwv1ORN18iSPPfqGk-22">
          <mxGeometry relative="1" as="geometry" />
        </mxCell>
        <mxCell id="iEEMwv1ORN18iSPPfqGk-28" style="edgeStyle=orthogonalEdgeStyle;rounded=0;orthogonalLoop=1;jettySize=auto;html=1;entryX=0.5;entryY=0;entryDx=0;entryDy=0;" edge="1" parent="WIyWlLk6GJQsqaUBKTNV-1" source="iEEMwv1ORN18iSPPfqGk-15" target="iEEMwv1ORN18iSPPfqGk-21">
          <mxGeometry relative="1" as="geometry" />
        </mxCell>
        <mxCell id="iEEMwv1ORN18iSPPfqGk-29" style="edgeStyle=orthogonalEdgeStyle;rounded=0;orthogonalLoop=1;jettySize=auto;html=1;entryX=0.5;entryY=0;entryDx=0;entryDy=0;" edge="1" parent="WIyWlLk6GJQsqaUBKTNV-1" source="iEEMwv1ORN18iSPPfqGk-15" target="iEEMwv1ORN18iSPPfqGk-23">
          <mxGeometry relative="1" as="geometry" />
        </mxCell>
        <mxCell id="iEEMwv1ORN18iSPPfqGk-30" style="edgeStyle=orthogonalEdgeStyle;rounded=0;orthogonalLoop=1;jettySize=auto;html=1;entryX=0.5;entryY=0;entryDx=0;entryDy=0;" edge="1" parent="WIyWlLk6GJQsqaUBKTNV-1" source="iEEMwv1ORN18iSPPfqGk-15" target="iEEMwv1ORN18iSPPfqGk-19">
          <mxGeometry relative="1" as="geometry" />
        </mxCell>
        <mxCell id="iEEMwv1ORN18iSPPfqGk-31" style="edgeStyle=orthogonalEdgeStyle;rounded=0;orthogonalLoop=1;jettySize=auto;html=1;entryX=0.5;entryY=0;entryDx=0;entryDy=0;" edge="1" parent="WIyWlLk6GJQsqaUBKTNV-1" source="iEEMwv1ORN18iSPPfqGk-15" target="iEEMwv1ORN18iSPPfqGk-25">
          <mxGeometry relative="1" as="geometry" />
        </mxCell>
        <mxCell id="iEEMwv1ORN18iSPPfqGk-32" style="edgeStyle=orthogonalEdgeStyle;rounded=0;orthogonalLoop=1;jettySize=auto;html=1;" edge="1" parent="WIyWlLk6GJQsqaUBKTNV-1" source="iEEMwv1ORN18iSPPfqGk-15" target="iEEMwv1ORN18iSPPfqGk-33">
          <mxGeometry relative="1" as="geometry">
            <mxPoint x="597" y="830" as="targetPoint" />
          </mxGeometry>
        </mxCell>
        <mxCell id="iEEMwv1ORN18iSPPfqGk-15" value="switch(ch)" style="rhombus;whiteSpace=wrap;html=1;" vertex="1" parent="WIyWlLk6GJQsqaUBKTNV-1">
          <mxGeometry x="557" y="570" width="80" height="80" as="geometry" />
        </mxCell>
        <mxCell id="iEEMwv1ORN18iSPPfqGk-40" style="edgeStyle=orthogonalEdgeStyle;rounded=0;orthogonalLoop=1;jettySize=auto;html=1;" edge="1" parent="WIyWlLk6GJQsqaUBKTNV-1" source="iEEMwv1ORN18iSPPfqGk-19">
          <mxGeometry relative="1" as="geometry">
            <mxPoint x="1010" y="840" as="targetPoint" />
          </mxGeometry>
        </mxCell>
        <mxCell id="iEEMwv1ORN18iSPPfqGk-19" value="Show Graph" style="rounded=0;whiteSpace=wrap;html=1;" vertex="1" parent="WIyWlLk6GJQsqaUBKTNV-1">
          <mxGeometry x="950" y="720" width="120" height="60" as="geometry" />
        </mxCell>
        <mxCell id="iEEMwv1ORN18iSPPfqGk-39" style="edgeStyle=orthogonalEdgeStyle;rounded=0;orthogonalLoop=1;jettySize=auto;html=1;" edge="1" parent="WIyWlLk6GJQsqaUBKTNV-1" source="iEEMwv1ORN18iSPPfqGk-20">
          <mxGeometry relative="1" as="geometry">
            <mxPoint x="860" y="840" as="targetPoint" />
          </mxGeometry>
        </mxCell>
        <mxCell id="iEEMwv1ORN18iSPPfqGk-20" value="Minimum Relation" style="rounded=0;whiteSpace=wrap;html=1;" vertex="1" parent="WIyWlLk6GJQsqaUBKTNV-1">
          <mxGeometry x="800" y="720" width="120" height="60" as="geometry" />
        </mxCell>
        <mxCell id="iEEMwv1ORN18iSPPfqGk-38" style="edgeStyle=orthogonalEdgeStyle;rounded=0;orthogonalLoop=1;jettySize=auto;html=1;" edge="1" parent="WIyWlLk6GJQsqaUBKTNV-1" source="iEEMwv1ORN18iSPPfqGk-21">
          <mxGeometry relative="1" as="geometry">
            <mxPoint x="707" y="840" as="targetPoint" />
          </mxGeometry>
        </mxCell>
        <mxCell id="iEEMwv1ORN18iSPPfqGk-21" value="Level one" style="rounded=0;whiteSpace=wrap;html=1;" vertex="1" parent="WIyWlLk6GJQsqaUBKTNV-1">
          <mxGeometry x="647" y="720" width="120" height="60" as="geometry" />
        </mxCell>
        <mxCell id="iEEMwv1ORN18iSPPfqGk-37" style="edgeStyle=orthogonalEdgeStyle;rounded=0;orthogonalLoop=1;jettySize=auto;html=1;" edge="1" parent="WIyWlLk6GJQsqaUBKTNV-1" source="iEEMwv1ORN18iSPPfqGk-22">
          <mxGeometry relative="1" as="geometry">
            <mxPoint x="490" y="840" as="targetPoint" />
          </mxGeometry>
        </mxCell>
        <mxCell id="iEEMwv1ORN18iSPPfqGk-22" value="Common Friend" style="rounded=0;whiteSpace=wrap;html=1;" vertex="1" parent="WIyWlLk6GJQsqaUBKTNV-1">
          <mxGeometry x="430" y="720" width="120" height="60" as="geometry" />
        </mxCell>
        <mxCell id="iEEMwv1ORN18iSPPfqGk-35" style="edgeStyle=orthogonalEdgeStyle;rounded=0;orthogonalLoop=1;jettySize=auto;html=1;exitX=0.5;exitY=1;exitDx=0;exitDy=0;" edge="1" parent="WIyWlLk6GJQsqaUBKTNV-1" source="iEEMwv1ORN18iSPPfqGk-23">
          <mxGeometry relative="1" as="geometry">
            <mxPoint x="340" y="840" as="targetPoint" />
          </mxGeometry>
        </mxCell>
        <mxCell id="iEEMwv1ORN18iSPPfqGk-23" value="Common Friend&lt;span style=&quot;white-space: pre&quot;&gt;&lt;/span&gt;" style="rounded=0;whiteSpace=wrap;html=1;" vertex="1" parent="WIyWlLk6GJQsqaUBKTNV-1">
          <mxGeometry x="280" y="720" width="120" height="60" as="geometry" />
        </mxCell>
        <mxCell id="iEEMwv1ORN18iSPPfqGk-42" style="edgeStyle=orthogonalEdgeStyle;rounded=0;orthogonalLoop=1;jettySize=auto;html=1;" edge="1" parent="WIyWlLk6GJQsqaUBKTNV-1" source="iEEMwv1ORN18iSPPfqGk-25">
          <mxGeometry relative="1" as="geometry">
            <mxPoint x="190" y="840" as="targetPoint" />
          </mxGeometry>
        </mxCell>
        <mxCell id="iEEMwv1ORN18iSPPfqGk-25" value="Level Friend&lt;span style=&quot;white-space: pre&quot;&gt;&lt;/span&gt;" style="rounded=0;whiteSpace=wrap;html=1;" vertex="1" parent="WIyWlLk6GJQsqaUBKTNV-1">
          <mxGeometry x="130" y="720" width="120" height="60" as="geometry" />
        </mxCell>
        <mxCell id="iEEMwv1ORN18iSPPfqGk-33" value="STOP" style="ellipse;whiteSpace=wrap;html=1;" vertex="1" parent="WIyWlLk6GJQsqaUBKTNV-1">
          <mxGeometry x="565.5" y="725" width="63" height="50" as="geometry" />
        </mxCell>
        <mxCell id="iEEMwv1ORN18iSPPfqGk-43" value="" style="endArrow=classic;html=1;" edge="1" parent="WIyWlLk6GJQsqaUBKTNV-1">
          <mxGeometry width="50" height="50" relative="1" as="geometry">
            <mxPoint x="1010" y="840" as="sourcePoint" />
            <mxPoint x="60" y="840" as="targetPoint" />
            <Array as="points">
              <mxPoint x="530" y="840" />
            </Array>
          </mxGeometry>
        </mxCell>
        <mxCell id="iEEMwv1ORN18iSPPfqGk-44" value="" style="endArrow=classic;html=1;edgeStyle=elbowEdgeStyle;elbow=vertical;" edge="1" parent="WIyWlLk6GJQsqaUBKTNV-1">
          <mxGeometry relative="1" as="geometry">
            <mxPoint x="60" y="840" as="sourcePoint" />
            <mxPoint x="60" y="290" as="targetPoint" />
          </mxGeometry>
        </mxCell>
        <mxCell id="iEEMwv1ORN18iSPPfqGk-48" value="" style="endArrow=classic;html=1;entryX=0;entryY=0.5;entryDx=0;entryDy=0;" edge="1" parent="WIyWlLk6GJQsqaUBKTNV-1" target="WIyWlLk6GJQsqaUBKTNV-6">
          <mxGeometry width="50" height="50" relative="1" as="geometry">
            <mxPoint x="60" y="290" as="sourcePoint" />
            <mxPoint x="110" y="260" as="targetPoint" />
            <Array as="points" />
          </mxGeometry>
        </mxCell>
      </root>
    </mxGraphModel>
  </diagram>
</mxfile>
